<mxfile host="app.diagrams.net" modified="2024-05-18T04:15:28.958Z" agent="Mozilla/5.0 (Macintosh; Intel Mac OS X 10.15; rv:126.0) Gecko/20100101 Firefox/126.0" etag="gBEHHC4EDMHWCOmkwju-" version="24.4.3" type="device">
  <diagram name="Page-1" id="b33cb84f-bf7a-9ccf-f142-242d16432e5d">
    <mxGraphModel dx="1023" dy="650" grid="1" gridSize="10" guides="1" tooltips="1" connect="1" arrows="1" fold="1" page="1" pageScale="1.5" pageWidth="1169" pageHeight="826" background="none" math="1" shadow="0">
      <root>
        <mxCell id="0" style=";html=1;" />
        <mxCell id="1" style=";html=1;" parent="0" />
        <mxCell id="IAq9Obv5xeo2uK8MsztY-9" value="" style="rounded=0;whiteSpace=wrap;html=1;rotation=0;" parent="1" vertex="1">
          <mxGeometry x="742.5" y="480" width="105" height="20" as="geometry" />
        </mxCell>
        <mxCell id="IAq9Obv5xeo2uK8MsztY-8" value="" style="rounded=0;whiteSpace=wrap;html=1;rotation=-60;" parent="1" vertex="1">
          <mxGeometry x="900" y="720" width="105" height="20" as="geometry" />
        </mxCell>
        <mxCell id="IAq9Obv5xeo2uK8MsztY-7" value="" style="rounded=0;whiteSpace=wrap;html=1;rotation=-120;" parent="1" vertex="1">
          <mxGeometry x="580" y="720" width="105" height="20" as="geometry" />
        </mxCell>
        <mxCell id="IAq9Obv5xeo2uK8MsztY-1" value="" style="triangle;whiteSpace=wrap;html=1;rotation=-90;" parent="1" vertex="1">
          <mxGeometry x="670" y="450" width="250" height="330" as="geometry" />
        </mxCell>
        <mxCell id="IAq9Obv5xeo2uK8MsztY-10" value="" style="endArrow=classic;html=1;rounded=0;exitX=0.75;exitY=1;exitDx=0;exitDy=0;" parent="1" edge="1">
          <mxGeometry width="50" height="50" relative="1" as="geometry">
            <mxPoint x="794.5699999999999" y="644" as="sourcePoint" />
            <mxPoint x="795" y="390" as="targetPoint" />
          </mxGeometry>
        </mxCell>
        <mxCell id="IAq9Obv5xeo2uK8MsztY-12" value="$$v_{x, \text{local}}$$" style="text;html=1;align=center;verticalAlign=middle;whiteSpace=wrap;rounded=0;" parent="1" vertex="1">
          <mxGeometry x="963.75" y="619" width="60" height="30" as="geometry" />
        </mxCell>
        <mxCell id="IAq9Obv5xeo2uK8MsztY-16" value="" style="endArrow=classic;html=1;rounded=0;" parent="1" edge="1">
          <mxGeometry width="50" height="50" relative="1" as="geometry">
            <mxPoint x="750" y="458" as="sourcePoint" />
            <mxPoint x="840" y="458" as="targetPoint" />
          </mxGeometry>
        </mxCell>
        <mxCell id="IAq9Obv5xeo2uK8MsztY-20" value="" style="endArrow=classic;html=1;rounded=0;" parent="1" edge="1">
          <mxGeometry width="50" height="50" relative="1" as="geometry">
            <mxPoint x="996" y="702" as="sourcePoint" />
            <mxPoint x="950" y="780" as="targetPoint" />
          </mxGeometry>
        </mxCell>
        <mxCell id="IAq9Obv5xeo2uK8MsztY-21" value="" style="endArrow=classic;html=1;rounded=0;" parent="1" edge="1">
          <mxGeometry width="50" height="50" relative="1" as="geometry">
            <mxPoint x="630" y="780" as="sourcePoint" />
            <mxPoint x="590" y="710" as="targetPoint" />
          </mxGeometry>
        </mxCell>
        <mxCell id="IAq9Obv5xeo2uK8MsztY-31" value="" style="ellipse;whiteSpace=wrap;html=1;aspect=fixed;" parent="1" vertex="1">
          <mxGeometry x="760" y="607" width="70" height="70" as="geometry" />
        </mxCell>
        <mxCell id="IAq9Obv5xeo2uK8MsztY-27" value="" style="endArrow=none;html=1;rounded=0;entryX=-0.004;entryY=1.006;entryDx=0;entryDy=0;entryPerimeter=0;" parent="1" target="IAq9Obv5xeo2uK8MsztY-1" edge="1">
          <mxGeometry width="50" height="50" relative="1" as="geometry">
            <mxPoint x="795" y="640" as="sourcePoint" />
            <mxPoint x="804" y="509" as="targetPoint" />
          </mxGeometry>
        </mxCell>
        <mxCell id="IAq9Obv5xeo2uK8MsztY-26" value="" style="endArrow=none;html=1;rounded=0;entryX=1;entryY=0.5;entryDx=0;entryDy=0;" parent="1" target="IAq9Obv5xeo2uK8MsztY-1" edge="1">
          <mxGeometry width="50" height="50" relative="1" as="geometry">
            <mxPoint x="794" y="640" as="sourcePoint" />
            <mxPoint x="795" y="530" as="targetPoint" />
          </mxGeometry>
        </mxCell>
        <mxCell id="IAq9Obv5xeo2uK8MsztY-32" value="$$120^\circ$$" style="text;html=1;align=center;verticalAlign=middle;whiteSpace=wrap;rounded=0;" parent="1" vertex="1">
          <mxGeometry x="787" y="577" width="60" height="30" as="geometry" />
        </mxCell>
        <mxCell id="IAq9Obv5xeo2uK8MsztY-33" value="" style="endArrow=none;html=1;rounded=0;" parent="1" edge="1">
          <mxGeometry width="50" height="50" relative="1" as="geometry">
            <mxPoint x="795" y="640" as="sourcePoint" />
            <mxPoint x="630" y="740" as="targetPoint" />
          </mxGeometry>
        </mxCell>
        <mxCell id="IAq9Obv5xeo2uK8MsztY-34" value="$$h$$" style="text;html=1;align=center;verticalAlign=middle;whiteSpace=wrap;rounded=0;" parent="1" vertex="1">
          <mxGeometry x="847" y="660" width="60" height="30" as="geometry" />
        </mxCell>
        <mxCell id="IAq9Obv5xeo2uK8MsztY-35" value="$$r$$" style="text;html=1;align=center;verticalAlign=middle;whiteSpace=wrap;rounded=0;fontSize=13;" parent="1" vertex="1">
          <mxGeometry x="787.5" y="475" width="60" height="30" as="geometry" />
        </mxCell>
        <mxCell id="IAq9Obv5xeo2uK8MsztY-36" value="$$\theta$$" style="text;html=1;align=center;verticalAlign=middle;whiteSpace=wrap;rounded=0;" parent="1" vertex="1">
          <mxGeometry x="840" y="613" width="60" height="30" as="geometry" />
        </mxCell>
        <mxCell id="YZ9mAuYKqssL_TZZkxHU-1" value="" style="endArrow=classic;startArrow=classic;html=1;rounded=0;exitX=0.25;exitY=0;exitDx=0;exitDy=0;entryX=1;entryY=0;entryDx=0;entryDy=0;" edge="1" parent="1">
          <mxGeometry width="50" height="50" relative="1" as="geometry">
            <mxPoint x="794.5" y="471" as="sourcePoint" />
            <mxPoint x="847.5" y="471" as="targetPoint" />
          </mxGeometry>
        </mxCell>
        <mxCell id="YZ9mAuYKqssL_TZZkxHU-3" value="" style="curved=1;endArrow=classic;html=1;rounded=0;exitX=0;exitY=1;exitDx=0;exitDy=0;exitPerimeter=0;" edge="1" parent="1">
          <mxGeometry width="50" height="50" relative="1" as="geometry">
            <mxPoint x="683.0000000000002" y="620" as="sourcePoint" />
            <mxPoint x="690" y="564" as="targetPoint" />
            <Array as="points">
              <mxPoint x="670" y="620" />
              <mxPoint x="660" y="600" />
              <mxPoint x="670" y="570" />
            </Array>
          </mxGeometry>
        </mxCell>
        <mxCell id="YZ9mAuYKqssL_TZZkxHU-9" value="&lt;div&gt;$$\omega2$$&lt;/div&gt;" style="text;html=1;align=center;verticalAlign=middle;whiteSpace=wrap;rounded=0;" vertex="1" parent="1">
          <mxGeometry x="900" y="738" width="187.5" height="30" as="geometry" />
        </mxCell>
        <mxCell id="YZ9mAuYKqssL_TZZkxHU-10" value="&lt;div&gt;$$\omega3$$&lt;/div&gt;" style="text;html=1;align=center;verticalAlign=middle;whiteSpace=wrap;rounded=0;" vertex="1" parent="1">
          <mxGeometry x="490" y="740" width="187.5" height="30" as="geometry" />
        </mxCell>
        <mxCell id="YZ9mAuYKqssL_TZZkxHU-12" value="$$\omega_{\text{body}}$$" style="text;html=1;align=center;verticalAlign=middle;whiteSpace=wrap;rounded=0;" vertex="1" parent="1">
          <mxGeometry x="664.25" y="583" width="60" height="30" as="geometry" />
        </mxCell>
        <mxCell id="YZ9mAuYKqssL_TZZkxHU-13" value="" style="endArrow=classic;html=1;rounded=0;" edge="1" parent="1">
          <mxGeometry width="50" height="50" relative="1" as="geometry">
            <mxPoint x="530" y="810" as="sourcePoint" />
            <mxPoint x="530" y="420" as="targetPoint" />
          </mxGeometry>
        </mxCell>
        <mxCell id="YZ9mAuYKqssL_TZZkxHU-14" value="" style="endArrow=classic;html=1;rounded=0;" edge="1" parent="1">
          <mxGeometry width="50" height="50" relative="1" as="geometry">
            <mxPoint x="530" y="810" as="sourcePoint" />
            <mxPoint x="1020" y="810" as="targetPoint" />
          </mxGeometry>
        </mxCell>
        <mxCell id="YZ9mAuYKqssL_TZZkxHU-15" value="$$v_x$$" style="text;html=1;align=center;verticalAlign=middle;whiteSpace=wrap;rounded=0;" vertex="1" parent="1">
          <mxGeometry x="963.75" y="810" width="60" height="30" as="geometry" />
        </mxCell>
        <mxCell id="YZ9mAuYKqssL_TZZkxHU-17" value="$$v_y$$" style="text;html=1;align=center;verticalAlign=middle;whiteSpace=wrap;rounded=0;" vertex="1" parent="1">
          <mxGeometry x="490" y="440" width="60" height="30" as="geometry" />
        </mxCell>
        <mxCell id="YZ9mAuYKqssL_TZZkxHU-21" value="$$v_{y,\text{local}}$$" style="text;html=1;align=center;verticalAlign=middle;whiteSpace=wrap;rounded=0;" vertex="1" parent="1">
          <mxGeometry x="765" y="360" width="60" height="30" as="geometry" />
        </mxCell>
        <mxCell id="YZ9mAuYKqssL_TZZkxHU-22" value="" style="endArrow=none;html=1;rounded=0;" edge="1" parent="1">
          <mxGeometry width="50" height="50" relative="1" as="geometry">
            <mxPoint x="955" y="560" as="sourcePoint" />
            <mxPoint x="795" y="640" as="targetPoint" />
          </mxGeometry>
        </mxCell>
        <mxCell id="IAq9Obv5xeo2uK8MsztY-11" value="" style="endArrow=classic;html=1;rounded=0;" parent="1" edge="1">
          <mxGeometry width="50" height="50" relative="1" as="geometry">
            <mxPoint x="797" y="640" as="sourcePoint" />
            <mxPoint x="967" y="640" as="targetPoint" />
          </mxGeometry>
        </mxCell>
        <mxCell id="IAq9Obv5xeo2uK8MsztY-17" value="&lt;div&gt;$$\omega1$$&lt;/div&gt;" style="text;html=1;align=center;verticalAlign=middle;whiteSpace=wrap;rounded=0;" parent="1" vertex="1">
          <mxGeometry x="670" y="429" width="187.5" height="30" as="geometry" />
        </mxCell>
      </root>
    </mxGraphModel>
  </diagram>
</mxfile>
